<svg width="37" height="43" viewBox="0 0 37 43" fill="none" xmlns="http://www.w3.org/2000/svg">
<g clip-path="url(#clip0_64_38)">
<path d="M18.769 19.4154C13.7268 19.4154 9.62635 15.3203 9.62635 10.2929C9.62635 5.26551 13.7268 1.17041 18.769 1.17041C23.8113 1.17041 27.9118 5.26551 27.9118 10.2929C27.9118 15.3203 23.8113 19.4154 18.769 19.4154ZM18.769 1.34452C13.8271 1.34452 9.8048 5.35599 9.8048 10.2929C9.8048 15.2298 13.8271 19.2413 18.769 19.2413C23.711 19.2413 27.7333 15.2298 27.7333 10.2929C27.7333 5.35599 23.711 1.34452 18.769 1.34452ZM5.94267 41.3482C3.72609 41.3482 1.92456 39.5474 1.92456 37.3401V34.207C1.92456 28.2418 6.78943 23.3837 12.7714 23.3837H24.7666C30.7486 23.3837 35.6134 28.2418 35.6134 34.207V37.3401C35.6135 39.5474 33.812 41.3482 31.5954 41.3482H5.94267ZM12.7714 23.5579C6.88982 23.5579 2.10301 28.3323 2.10301 34.207V37.3401C2.10301 39.4569 3.82648 41.1741 5.94267 41.1741H31.5954C33.7116 41.1741 35.4351 39.4569 35.4351 37.3401V34.207C35.4351 28.3323 30.6483 23.5579 24.7667 23.5579H12.7714Z" fill="white" stroke="white" stroke-width="2"/>
</g>
<defs>
<clipPath id="clip0_64_38">
<rect width="37" height="43" fill="white"/>
</clipPath>
</defs>
</svg>
