<svg width="64" height="48" viewBox="0 0 64 48" fill="none" xmlns="http://www.w3.org/2000/svg">
<path d="M24.196 1.17152L1.33899 21.1716C-0.446333 22.7336 -0.446333 25.2663 1.33899 26.8284L24.1961 46.8284C25.9814 48.3905 28.8758 48.3905 30.6611 46.8284C32.4464 45.2662 32.4464 42.7336 30.6611 41.1714L15.6078 28L59.4286 28C61.9531 28 64 26.2091 64 24C64 21.7909 61.9531 20 59.4286 20L15.6078 20L30.6611 6.82833C31.5536 6.04725 31.9999 5.02365 31.9999 3.99993C31.9999 2.97632 31.5536 1.95248 30.6608 1.17164C28.8756 -0.390523 25.9814 -0.390527 24.196 1.17152Z" fill="#604882"/>
</svg>
